<svg width="660" height="186" viewBox="0 0 660 186" fill="none" xmlns="http://www.w3.org/2000/svg">
<rect y="22" width="660" height="141" fill="white"/>
<path d="M83 73.1C94 74.3 102.8 76.25 109.4 78.95C116.1 81.65 120.95 85.2 123.95 89.6C126.95 94 128.45 99.5 128.45 106.1C128.45 113.3 126.1 119.6 121.4 125C116.8 130.3 110.4 134.4 102.2 137.3C94 140.1 84.65 141.5 74.15 141.5C62.45 141.5 52.55 140.05 44.45 137.15C36.35 134.25 30.3 130.4 26.3 125.6C22.3 120.7 20.3 115.35 20.3 109.55C20.3 108.55 20.6 107.75 21.2 107.15C21.9 106.55 22.75 106.25 23.75 106.25H54.5C56.6 106.25 58.3 106.9 59.6 108.2C61.3 109.8 63.2 110.9 65.3 111.5C67.4 112 70.35 112.25 74.15 112.25C83.65 112.25 88.4 110.8 88.4 107.9C88.4 106.7 87.75 105.7 86.45 104.9C85.25 104 83.05 103.25 79.85 102.65C76.75 101.95 72.15 101.25 66.05 100.55C52.35 98.95 41.85 95.55 34.55 90.35C27.25 85.05 23.6 77.6 23.6 68C23.6 61.2 25.65 55.2 29.75 50C33.85 44.8 39.65 40.75 47.15 37.85C54.75 34.95 63.55 33.5 73.55 33.5C83.95 33.5 93.05 35.15 100.85 38.45C108.65 41.65 114.6 45.65 118.7 50.45C122.8 55.25 124.85 59.95 124.85 64.55C124.85 65.55 124.5 66.35 123.8 66.95C123.2 67.55 122.35 67.85 121.25 67.85H89C87.3 67.85 85.75 67.25 84.35 66.05C83.25 65.05 81.95 64.25 80.45 63.65C78.95 63.05 76.65 62.75 73.55 62.75C66.85 62.75 63.5 64.15 63.5 66.95C63.5 68.45 64.8 69.65 67.4 70.55C70 71.35 75.2 72.2 83 73.1ZM251.091 109.25C252.191 109.25 253.141 109.65 253.941 110.45C254.741 111.25 255.141 112.2 255.141 113.3V135.95C255.141 137.05 254.741 138 253.941 138.8C253.141 139.6 252.191 140 251.091 140H163.491C162.391 140 161.441 139.6 160.641 138.8C159.841 138 159.441 137.05 159.441 135.95V39.05C159.441 37.95 159.841 37 160.641 36.2C161.441 35.4 162.391 35 163.491 35H195.891C196.991 35 197.941 35.4 198.741 36.2C199.541 37 199.941 37.95 199.941 39.05V109.25H251.091ZM350.033 109.25H377.183C378.283 109.25 379.233 109.65 380.033 110.45C380.833 111.25 381.233 112.2 381.233 113.3V135.95C381.233 137.05 380.833 138 380.033 138.8C379.233 139.6 378.283 140 377.183 140H282.083C280.983 140 280.033 139.6 279.233 138.8C278.433 138 278.033 137.05 278.033 135.95V113.3C278.033 112.2 278.433 111.25 279.233 110.45C280.033 109.65 280.983 109.25 282.083 109.25H309.533V65.75H282.083C280.983 65.75 280.033 65.35 279.233 64.55C278.433 63.75 278.033 62.8 278.033 61.7V39.05C278.033 37.95 278.433 37 279.233 36.2C280.033 35.4 280.983 35 282.083 35H377.183C378.283 35 379.233 35.4 380.033 36.2C380.833 37 381.233 37.95 381.233 39.05V61.7C381.233 62.8 380.833 63.75 380.033 64.55C379.233 65.35 378.283 65.75 377.183 65.75H350.033V109.25ZM504.024 35C505.124 35 506.074 35.4 506.874 36.2C507.674 37 508.074 37.95 508.074 39.05V135.95C508.074 137.05 507.674 138 506.874 138.8C506.074 139.6 505.124 140 504.024 140H479.874C477.474 140 475.474 138.95 473.874 136.85L441.174 95.15V135.95C441.174 137.05 440.774 138 439.974 138.8C439.174 139.6 438.224 140 437.124 140H409.224C408.124 140 407.174 139.6 406.374 138.8C405.574 138 405.174 137.05 405.174 135.95V39.05C405.174 37.95 405.574 37 406.374 36.2C407.174 35.4 408.124 35 409.224 35H433.524C435.924 35 437.874 36 439.374 38L472.074 83.15V39.05C472.074 37.95 472.474 37 473.274 36.2C474.074 35.4 475.024 35 476.124 35H504.024ZM638.516 76.7C639.616 76.7 640.566 77.1 641.366 77.9C642.166 78.7 642.566 79.65 642.566 80.75V96.65C642.566 111.85 637.366 123.15 626.966 130.55C616.666 137.85 603.016 141.5 586.016 141.5C569.016 141.5 555.316 137.85 544.916 130.55C534.616 123.15 529.466 111.75 529.466 96.35V78.65C529.466 68.45 531.966 60 536.966 53.3C541.966 46.5 548.716 41.5 557.216 38.3C565.716 35.1 575.316 33.5 586.016 33.5C598.816 33.5 609.366 35.6 617.666 39.8C625.966 44 631.966 48.75 635.666 54.05C639.466 59.35 641.366 63.65 641.366 66.95C641.366 67.85 641.016 68.65 640.316 69.35C639.716 69.95 638.966 70.25 638.066 70.25H604.166C602.166 70.25 600.716 69.7 599.816 68.6C596.716 64.7 592.116 62.75 586.016 62.75C581.416 62.75 577.566 63.8 574.466 65.9C571.466 68 569.966 70.7 569.966 74V99.5C569.966 103.5 571.466 106.65 574.466 108.95C577.466 111.15 581.316 112.25 586.016 112.25C592.216 112.25 596.766 111.2 599.666 109.1C602.666 106.9 604.216 104.35 604.316 101.45H595.016C593.916 101.45 592.966 101.05 592.166 100.25C591.366 99.45 590.966 98.5 590.966 97.4V80.75C590.966 79.65 591.366 78.7 592.166 77.9C592.966 77.1 593.916 76.7 595.016 76.7H638.516Z" fill="url(#paint0_linear)"/>
<defs>
<linearGradient id="paint0_linear" x1="330" y1="0" x2="330" y2="186" gradientUnits="userSpaceOnUse">
<stop offset="0.303125" stop-color="#FF2424"/>
<stop offset="1" stop-color="#FF2424" stop-opacity="0.4"/>
</linearGradient>
</defs>
</svg>
